<?xml version="1.0" encoding="UTF-8" standalone="no"?>
<!DOCTYPE svg PUBLIC "-//W3C//DTD SVG 1.1//EN"
 "http://www.w3.org/Graphics/SVG/1.1/DTD/svg11.dtd">
<!-- Generated by graphviz version 2.40.1 (20161225.0304)
 -->
<!-- Title: %3 Pages: 1 -->
<svg width="569pt" height="479pt"
 viewBox="0.00 0.00 569.43 479.00" xmlns="http://www.w3.org/2000/svg" xmlns:xlink="http://www.w3.org/1999/xlink">
<g id="graph0" class="graph" transform="scale(1 1) rotate(0) translate(4 475)">
<title>%3</title>
<polygon fill="#333333" stroke="transparent" points="-4,4 -4,-475 565.4347,-475 565.4347,4 -4,4"/>
<text text-anchor="middle" x="280.7174" y="-9.2" font-family="Times,serif" font-size="16.00" fill="#ffffff">Network Map</text>
<!-- R4 -->
<g id="node1" class="node">
<title>R4</title>
<polygon fill="#006699" stroke="#006699" points="144.4347,-99 68.4347,-99 68.4347,-26 144.4347,-26 144.4347,-99"/>
<text text-anchor="middle" x="106.4347" y="-58.8" font-family="Helvetica,sans-Serif" font-size="14.00" fill="#ffffff">R4</text>
</g>
<!-- R1 -->
<g id="node2" class="node">
<title>R1</title>
<polygon fill="#006699" stroke="#006699" points="324.4347,-471 248.4347,-471 248.4347,-398 324.4347,-398 324.4347,-471"/>
<text text-anchor="middle" x="286.4347" y="-430.8" font-family="Helvetica,sans-Serif" font-size="14.00" fill="#ffffff">R1</text>
</g>
<!-- R4&#45;&#45;R1 -->
<g id="edge4" class="edge">
<title>R4&#45;&#45;R1</title>
<path fill="none" stroke="#00ff00" stroke-dasharray="5,2" d="M68.174,-96.7726C29.5237,-135.7377 -20.5171,-201.0669 9.4347,-256 60.717,-350.0543 185.1773,-402.0171 248.3276,-423.1435"/>
<text text-anchor="middle" x="59.4347" y="-244.8" font-family="Courier,monospace" font-size="14.00" fill="#ffffff"> &#160;&#160;&#160;&#160;&#160;&#160;&#160;&#160;&#160;&#160;&#160;</text>
<text text-anchor="middle" x="227.3276" y="-411.9435" font-family="Courier,monospace" font-size="14.00" fill="#ffffff">Fa4/0</text>
<text text-anchor="middle" x="47.174" y="-85.5726" font-family="Courier,monospace" font-size="14.00" fill="#ffffff">Fa4/0</text>
</g>
<!-- R5 -->
<g id="node3" class="node">
<title>R5</title>
<polygon fill="#006699" stroke="#006699" points="144.4347,-223 68.4347,-223 68.4347,-150 144.4347,-150 144.4347,-223"/>
<text text-anchor="middle" x="106.4347" y="-182.8" font-family="Helvetica,sans-Serif" font-size="14.00" fill="#ffffff">R5</text>
</g>
<!-- R4&#45;&#45;R5 -->
<g id="edge8" class="edge">
<title>R4&#45;&#45;R5</title>
<path fill="none" stroke="#00ff00" stroke-dasharray="5,2" d="M106.4347,-99.0334C106.4347,-115.0358 106.4347,-133.7778 106.4347,-149.7992"/>
<text text-anchor="middle" x="156.4347" y="-120.8" font-family="Courier,monospace" font-size="14.00" fill="#ffffff"> &#160;&#160;&#160;&#160;&#160;&#160;&#160;&#160;&#160;&#160;&#160;</text>
<text text-anchor="middle" x="85.4347" y="-138.5992" font-family="Courier,monospace" font-size="14.00" fill="#ffffff">Fa0/1</text>
<text text-anchor="middle" x="85.4347" y="-102.8334" font-family="Courier,monospace" font-size="14.00" fill="#ffffff">Fa0/1</text>
</g>
<!-- R2 -->
<g id="node5" class="node">
<title>R2</title>
<polygon fill="#006699" stroke="#006699" points="324.4347,-223 248.4347,-223 248.4347,-150 324.4347,-150 324.4347,-223"/>
<text text-anchor="middle" x="286.4347" y="-182.8" font-family="Helvetica,sans-Serif" font-size="14.00" fill="#ffffff">R2</text>
</g>
<!-- R4&#45;&#45;R2 -->
<g id="edge7" class="edge">
<title>R4&#45;&#45;R2</title>
<path fill="none" stroke="#00ff00" stroke-dasharray="5,2" d="M144.5662,-80.491C164.0029,-90.2962 187.6487,-103.225 207.4347,-117 221.3772,-126.7067 235.6155,-138.5331 248.0947,-149.6579"/>
<text text-anchor="middle" x="275.4347" y="-120.8" font-family="Courier,monospace" font-size="14.00" fill="#ffffff"> &#160;&#160;&#160;&#160;&#160;&#160;&#160;&#160;&#160;&#160;&#160;</text>
<text text-anchor="middle" x="227.0947" y="-138.4579" font-family="Courier,monospace" font-size="14.00" fill="#ffffff">Fa1/0</text>
<text text-anchor="middle" x="165.5662" y="-69.291" font-family="Courier,monospace" font-size="14.00" fill="#ffffff">Fa1/0</text>
</g>
<!-- R3 -->
<g id="node4" class="node">
<title>R3</title>
<polygon fill="#006699" stroke="#006699" points="267.4347,-347 191.4347,-347 191.4347,-274 267.4347,-274 267.4347,-347"/>
<text text-anchor="middle" x="229.4347" y="-306.8" font-family="Helvetica,sans-Serif" font-size="14.00" fill="#ffffff">R3</text>
</g>
<!-- R5&#45;&#45;R3 -->
<g id="edge6" class="edge">
<title>R5&#45;&#45;R3</title>
<path fill="none" stroke="#00ff00" stroke-dasharray="5,2" d="M108.1963,-223.0224C110.2668,-234.5067 114.1879,-246.6241 121.4347,-256 138.7095,-278.35 167.6441,-292.259 191.2181,-300.4272"/>
<text text-anchor="middle" x="171.4347" y="-244.8" font-family="Courier,monospace" font-size="14.00" fill="#ffffff"> &#160;&#160;&#160;&#160;&#160;&#160;&#160;&#160;&#160;&#160;&#160;</text>
<text text-anchor="middle" x="170.2181" y="-289.2272" font-family="Courier,monospace" font-size="14.00" fill="#ffffff">Fa3/0</text>
<text text-anchor="middle" x="87.1963" y="-226.8224" font-family="Courier,monospace" font-size="14.00" fill="#ffffff">Fa4/0</text>
</g>
<!-- R3&#45;&#45;R1 -->
<g id="edge1" class="edge">
<title>R3&#45;&#45;R1</title>
<path fill="none" stroke="#00ff00" stroke-dasharray="5,2" d="M224.7321,-347.3285C224.709,-358.2172 226.091,-369.9145 230.4347,-380 234.5132,-389.4695 241.1056,-398.1199 248.3598,-405.6028"/>
<text text-anchor="middle" x="280.4347" y="-368.8" font-family="Courier,monospace" font-size="14.00" fill="#ffffff"> &#160;&#160;&#160;&#160;&#160;&#160;&#160;&#160;&#160;&#160;&#160;</text>
<text text-anchor="middle" x="227.3598" y="-394.4028" font-family="Courier,monospace" font-size="14.00" fill="#ffffff">Fa0/1</text>
<text text-anchor="middle" x="203.7321" y="-351.1285" font-family="Courier,monospace" font-size="14.00" fill="#ffffff">Fa0/1</text>
</g>
<!-- R2&#45;&#45;R1 -->
<g id="edge2" class="edge">
<title>R2&#45;&#45;R1</title>
<path fill="none" stroke="#00ff00" stroke-dasharray="5,2" d="M321.3016,-223.183C325.0249,-228.8038 328.2473,-234.8084 330.4347,-241 351.0135,-299.2495 351.0135,-321.7505 330.4347,-380 328.2473,-386.1916 325.0249,-392.1962 321.3016,-397.817"/>
<text text-anchor="middle" x="395.4347" y="-306.8" font-family="Courier,monospace" font-size="14.00" fill="#ffffff"> &#160;&#160;&#160;&#160;&#160;&#160;&#160;&#160;&#160;&#160;&#160;</text>
<text text-anchor="middle" x="300.3016" y="-386.617" font-family="Courier,monospace" font-size="14.00" fill="#ffffff">Fa3/0</text>
<text text-anchor="middle" x="300.3016" y="-226.983" font-family="Courier,monospace" font-size="14.00" fill="#ffffff">Fa3/0</text>
</g>
<!-- R2&#45;&#45;R1 -->
<g id="edge3" class="edge">
<title>R2&#45;&#45;R1</title>
<path fill="none" stroke="#00ff00" stroke-dasharray="5,2" d="M324.7,-194.9649C363.8268,-205.8833 422.5602,-229.0716 449.4347,-274 466.0897,-301.8434 466.0897,-319.1566 449.4347,-347 422.5602,-391.9284 363.8268,-415.1167 324.7,-426.0351"/>
<text text-anchor="middle" x="511.4347" y="-306.8" font-family="Courier,monospace" font-size="14.00" fill="#ffffff"> &#160;&#160;&#160;&#160;&#160;&#160;&#160;&#160;&#160;&#160;&#160;</text>
<text text-anchor="middle" x="345.7" y="-414.8351" font-family="Courier,monospace" font-size="14.00" fill="#ffffff">Fa0/1</text>
<text text-anchor="middle" x="345.7" y="-183.7649" font-family="Courier,monospace" font-size="14.00" fill="#ffffff">Fa1/0</text>
</g>
<!-- R2&#45;&#45;R3 -->
<g id="edge5" class="edge">
<title>R2&#45;&#45;R3</title>
<path fill="none" stroke="#00ff00" stroke-dasharray="5,2" d="M248.3598,-215.3972C241.1056,-222.8801 234.5132,-231.5305 230.4347,-241 226.091,-251.0855 224.709,-262.7828 224.7321,-273.6715"/>
<text text-anchor="middle" x="280.4347" y="-244.8" font-family="Courier,monospace" font-size="14.00" fill="#ffffff"> &#160;&#160;&#160;&#160;&#160;&#160;&#160;&#160;&#160;&#160;&#160;</text>
<text text-anchor="middle" x="203.7321" y="-262.4715" font-family="Courier,monospace" font-size="14.00" fill="#ffffff">Fa0/0</text>
<text text-anchor="middle" x="227.3598" y="-204.1972" font-family="Courier,monospace" font-size="14.00" fill="#ffffff">Fa0/0</text>
</g>
</g>
</svg>
