<?xml version="1.0" encoding="UTF-8" standalone="no"?>
<!DOCTYPE svg PUBLIC "-//W3C//DTD SVG 1.1//EN"
 "http://www.w3.org/Graphics/SVG/1.1/DTD/svg11.dtd">
<!-- Generated by graphviz version 2.40.1 (20161225.0304)
 -->
<!-- Title: %3 Pages: 1 -->
<svg width="502pt" height="355pt"
 viewBox="0.00 0.00 502.39 355.00" xmlns="http://www.w3.org/2000/svg" xmlns:xlink="http://www.w3.org/1999/xlink">
<g id="graph0" class="graph" transform="scale(1 1) rotate(0) translate(4 351)">
<title>%3</title>
<polygon fill="#333333" stroke="transparent" points="-4,4 -4,-351 498.3868,-351 498.3868,4 -4,4"/>
<text text-anchor="middle" x="247.1934" y="-9.2" font-family="Times,serif" font-size="16.00" fill="#ffffff">Network Map</text>
<!-- SW1 -->
<g id="node1" class="node">
<title>SW1</title>
<polygon fill="#006699" stroke="#006699" points="279.8868,-99 190.8868,-99 190.8868,-26 279.8868,-26 279.8868,-99"/>
<text text-anchor="middle" x="235.3868" y="-58.8" font-family="Helvetica,sans-Serif" font-size="14.00" fill="#ffffff">SW1</text>
</g>
<!-- R2 -->
<g id="node3" class="node">
<title>R2</title>
<polygon fill="#006699" stroke="#006699" points="103.3868,-223 27.3868,-223 27.3868,-150 103.3868,-150 103.3868,-223"/>
<text text-anchor="middle" x="65.3868" y="-182.8" font-family="Helvetica,sans-Serif" font-size="14.00" fill="#ffffff">R2</text>
</g>
<!-- SW1&#45;&#45;R2 -->
<g id="edge2" class="edge">
<title>SW1&#45;&#45;R2</title>
<path fill="none" stroke="#00ff00" stroke-dasharray="5,2" d="M190.5948,-70.8529C145.7533,-80.2261 81.323,-96.7967 66.3868,-117 59.5001,-126.3153 57.6378,-138.4175 58,-149.9066"/>
<text text-anchor="middle" x="116.3868" y="-120.8" font-family="Courier,monospace" font-size="14.00" fill="#ffffff"> &#160;&#160;&#160;&#160;&#160;&#160;&#160;&#160;&#160;&#160;&#160;</text>
<text text-anchor="middle" x="29" y="-138.7066" font-family="Courier,monospace" font-size="14.00" fill="#ffffff">Eth 0/0</text>
<text text-anchor="middle" x="161.5948" y="-59.6529" font-family="Courier,monospace" font-size="14.00" fill="#ffffff">Eth 0/2</text>
</g>
<!-- R3 -->
<g id="node4" class="node">
<title>R3</title>
<polygon fill="#006699" stroke="#006699" points="212.3868,-223 136.3868,-223 136.3868,-150 212.3868,-150 212.3868,-223"/>
<text text-anchor="middle" x="174.3868" y="-182.8" font-family="Helvetica,sans-Serif" font-size="14.00" fill="#ffffff">R3</text>
</g>
<!-- SW1&#45;&#45;R3 -->
<g id="edge3" class="edge">
<title>SW1&#45;&#45;R3</title>
<path fill="none" stroke="#00ff00" stroke-dasharray="5,2" d="M190.7173,-94.9436C184.5188,-101.5148 179.0333,-108.919 175.3868,-117 170.8205,-127.1193 169.4071,-138.9413 169.4701,-149.9353"/>
<text text-anchor="middle" x="225.3868" y="-120.8" font-family="Courier,monospace" font-size="14.00" fill="#ffffff"> &#160;&#160;&#160;&#160;&#160;&#160;&#160;&#160;&#160;&#160;&#160;</text>
<text text-anchor="middle" x="140.4701" y="-138.7353" font-family="Courier,monospace" font-size="14.00" fill="#ffffff">Eth 0/0</text>
<text text-anchor="middle" x="161.7173" y="-83.7436" font-family="Courier,monospace" font-size="14.00" fill="#ffffff">Eth 0/3</text>
</g>
<!-- R1 -->
<g id="node5" class="node">
<title>R1</title>
<polygon fill="#006699" stroke="#006699" points="335.3868,-223 259.3868,-223 259.3868,-150 335.3868,-150 335.3868,-223"/>
<text text-anchor="middle" x="297.3868" y="-182.8" font-family="Helvetica,sans-Serif" font-size="14.00" fill="#ffffff">R1</text>
</g>
<!-- SW1&#45;&#45;R1 -->
<g id="edge1" class="edge">
<title>SW1&#45;&#45;R1</title>
<path fill="none" stroke="#00ff00" stroke-dasharray="5,2" d="M264.83,-99.2843C268.6947,-105.0244 272.3579,-111.035 275.3868,-117 280.6012,-127.269 284.8884,-139.0192 288.2486,-149.9001"/>
<text text-anchor="middle" x="331.3868" y="-120.8" font-family="Courier,monospace" font-size="14.00" fill="#ffffff"> &#160;&#160;&#160;&#160;&#160;&#160;&#160;&#160;&#160;&#160;&#160;</text>
<text text-anchor="middle" x="259.2486" y="-138.7001" font-family="Courier,monospace" font-size="14.00" fill="#ffffff">Eth 0/0</text>
<text text-anchor="middle" x="235.83" y="-103.0843" font-family="Courier,monospace" font-size="14.00" fill="#ffffff">Eth 0/1</text>
</g>
<!-- R4 -->
<g id="node6" class="node">
<title>R4</title>
<polygon fill="#006699" stroke="#006699" points="443.3868,-223 367.3868,-223 367.3868,-150 443.3868,-150 443.3868,-223"/>
<text text-anchor="middle" x="405.3868" y="-182.8" font-family="Helvetica,sans-Serif" font-size="14.00" fill="#ffffff">R4</text>
</g>
<!-- SW1&#45;&#45;R4 -->
<g id="edge4" class="edge">
<title>SW1&#45;&#45;R4</title>
<path fill="none" stroke="#00ff00" stroke-dasharray="5,2" d="M280.067,-67.7928C313.4845,-74.0533 357.965,-87.6381 385.3868,-117 393.6995,-125.9009 398.5842,-138.0347 401.4451,-149.6735"/>
<text text-anchor="middle" x="444.3868" y="-120.8" font-family="Courier,monospace" font-size="14.00" fill="#ffffff"> &#160;&#160;&#160;&#160;&#160;&#160;&#160;&#160;&#160;&#160;&#160;</text>
<text text-anchor="middle" x="372.4451" y="-138.4735" font-family="Courier,monospace" font-size="14.00" fill="#ffffff">Eth 0/0</text>
<text text-anchor="middle" x="309.067" y="-56.5928" font-family="Courier,monospace" font-size="14.00" fill="#ffffff">Eth 0/4</text>
</g>
<!-- R6 -->
<g id="node2" class="node">
<title>R6</title>
<polygon fill="#006699" stroke="#006699" points="103.3868,-347 27.3868,-347 27.3868,-274 103.3868,-274 103.3868,-347"/>
<text text-anchor="middle" x="65.3868" y="-306.8" font-family="Helvetica,sans-Serif" font-size="14.00" fill="#ffffff">R6</text>
</g>
<!-- R2&#45;&#45;R6 -->
<g id="edge6" class="edge">
<title>R2&#45;&#45;R6</title>
<path fill="none" stroke="#00ff00" stroke-dasharray="5,2" d="M65.3868,-223.0334C65.3868,-239.0358 65.3868,-257.7778 65.3868,-273.7992"/>
<text text-anchor="middle" x="115.3868" y="-244.8" font-family="Courier,monospace" font-size="14.00" fill="#ffffff"> &#160;&#160;&#160;&#160;&#160;&#160;&#160;&#160;&#160;&#160;&#160;</text>
<text text-anchor="middle" x="36.3868" y="-262.5992" font-family="Courier,monospace" font-size="14.00" fill="#ffffff">Eth 0/1</text>
<text text-anchor="middle" x="36.3868" y="-226.8334" font-family="Courier,monospace" font-size="14.00" fill="#ffffff">Eth 0/2</text>
</g>
<!-- R5 -->
<g id="node7" class="node">
<title>R5</title>
<polygon fill="#006699" stroke="#006699" points="327.3868,-347 251.3868,-347 251.3868,-274 327.3868,-274 327.3868,-347"/>
<text text-anchor="middle" x="289.3868" y="-306.8" font-family="Helvetica,sans-Serif" font-size="14.00" fill="#ffffff">R5</text>
</g>
<!-- R2&#45;&#45;R5 -->
<g id="edge5" class="edge">
<title>R2&#45;&#45;R5</title>
<path fill="none" stroke="#00ff00" stroke-dasharray="5,2" d="M103.6601,-210.053C111.4148,-214.5341 119.5854,-219.052 127.3868,-223 145.5073,-232.1701 151.2337,-231.8944 169.3868,-241 197.3624,-255.0326 227.8702,-272.7355 251.1241,-286.7625"/>
<text text-anchor="middle" x="245.3868" y="-244.8" font-family="Courier,monospace" font-size="14.00" fill="#ffffff"> &#160;&#160;&#160;&#160;&#160;&#160;&#160;&#160;&#160;&#160;&#160;</text>
<text text-anchor="middle" x="222.1241" y="-275.5625" font-family="Courier,monospace" font-size="14.00" fill="#ffffff">Eth 0/0</text>
<text text-anchor="middle" x="132.6601" y="-213.853" font-family="Courier,monospace" font-size="14.00" fill="#ffffff">Eth 0/1</text>
</g>
<!-- R4&#45;&#45;R5 -->
<g id="edge7" class="edge">
<title>R4&#45;&#45;R5</title>
<path fill="none" stroke="#00ff00" stroke-dasharray="5,2" d="M371.2104,-223.0334C356.2404,-239.0358 338.7076,-257.7778 323.7198,-273.7992"/>
<text text-anchor="middle" x="403.3868" y="-244.8" font-family="Courier,monospace" font-size="14.00" fill="#ffffff"> &#160;&#160;&#160;&#160;&#160;&#160;&#160;&#160;&#160;&#160;&#160;</text>
<text text-anchor="middle" x="294.7198" y="-262.5992" font-family="Courier,monospace" font-size="14.00" fill="#ffffff">Eth 0/1</text>
<text text-anchor="middle" x="342.2104" y="-226.8334" font-family="Courier,monospace" font-size="14.00" fill="#ffffff">Eth 0/1</text>
</g>
</g>
</svg>
